<svg xmlns="http://www.w3.org/2000/svg" width="768" height="1024" viewBox="0 0 768 1024"><path fill="#FFF" d="M706.038 477.725c-12.365-104.218-75.072-192.99-163.34-241.03-1.58-36.672-31.587-65.986-68.643-65.986-23.117 0-43.445 11.465-55.964 28.93-8.84-.745-17.74-1.36-26.764-1.36-161.457 0-294.452 120.746-314.335 276.803-3.156-.638-6.412-.982-9.753-.982-26.65 0-48.26 21.605-48.26 48.27 0 26.68 21.61 48.27 48.26 48.27 4.07 0 7.98-.66 11.758-1.62 9.178 53.812 31.718 102.973 64.35 143.898-.038.83-.252 1.66-.252 2.52 0 26.673 21.61 48.26 48.27 48.26.86 0 1.673-.214 2.526-.252 54.182 43.223 122.733 69.212 197.444 69.212 157.34 0 287.578-114.7 312.522-264.96 18.73-6.62 32.24-24.322 32.24-45.327-.022-20.2-12.448-37.45-30.058-44.645zm-446.2-50.99c6.212 3.71 13.385 5.984 21.142 5.984 22.855 0 41.364-18.533 41.364-41.374 0-5.99-1.328-11.65-3.617-16.79 21.766-11.242 46.402-17.694 72.576-17.694 87.598 0 158.592 71.01 158.592 158.592 0 87.598-70.994 158.592-158.592 158.592-37.264 0-71.463-12.94-98.535-34.444 30.628-29.207 61.31-59.49 75.886-73.967 6.912 3.15 14.554 4.977 22.648 4.977 30.475 0 55.165-24.69 55.165-55.165 0-30.46-24.69-55.165-55.165-55.165-30.46 0-55.165 24.706-55.165 55.165 0 8.08 1.843 15.706 4.96 22.633l-74.78 74.765c-20.996-26.902-33.606-60.64-33.606-97.405.002-32.846 10.01-63.375 27.127-88.704zm379.7 95.633c0 17.434 9.322 32.548 23.153 41.034-22.73 129.438-135.443 227.89-271.387 227.89-59.26 0-114.01-18.855-158.976-50.674 4.53-7.357 7.265-15.93 7.265-25.175 0-7.98-2.112-15.398-5.552-22.02 9.362-7.925 20.805-18.23 33.393-29.92 33.54 28.077 76.692 45.043 123.863 45.043 106.652 0 193.06-86.43 193.06-193.067 0-106.63-86.43-193.07-193.06-193.07-37.056 0-71.562 10.623-100.977 28.74-3.02-.7-6.122-1.16-9.355-1.16-22.856 0-41.373 18.523-41.373 41.37 0 1.483.284 2.904.446 4.348-26.112 32.924-41.826 74.48-41.826 119.77 0 46.287 16.32 88.734 43.484 122.012l-33.032 33.024c-5.4-2.074-11.22-3.34-17.34-3.34-9.27 0-17.85 2.748-25.184 7.28-31.818-44.976-50.673-99.733-50.673-158.977 0-152.326 123.48-275.82 275.82-275.82 4.66 0 9.238.476 13.87.7.383 37.746 31.026 68.244 68.874 68.244 23.84 0 44.86-12.103 57.247-30.497 71.608 42.34 122.335 115.938 133.325 202.16-14.843 8.236-25.065 23.888-25.065 42.105z"/></svg>